<svg xmlns="http://www.w3.org/2000/svg" width="190" height="245" viewBox="0 0 190 245"><rect width="100%" height="100%" fill="#f2f4f7"/><rect x="35" y="35" width="120" height="150" rx="7" fill="#171d24" stroke="#0b1118" stroke-width="3"/><rect x="45" y="49" width="100" height="122" rx="6" fill="#252f39" stroke="#596775" stroke-width="1.5"/><line x1="70" y1="35" x2="70" y2="77.0" stroke="#c0c8cf" stroke-width="4" stroke-linecap="round"/><rect x="59.08" y="72.0" width="21.84" height="9" rx="2" fill="#aab4bc" stroke="#65727d"/><rect x="57.0" y="77.0" width="26" height="66.0" rx="13.0" fill="#eee9dc" stroke="#7a7469" stroke-width="1.8"/><rect x="62.72" y="84.0" width="14.560000000000002" height="52.0" rx="7.280000000000001" fill="#faf8ef" stroke="#beb6a5"/><rect x="59.08" y="139.0" width="21.84" height="9" rx="2" fill="#aab4bc" stroke="#65727d"/><line x1="70" y1="143.0" x2="70" y2="185" stroke="#c0c8cf" stroke-width="4" stroke-linecap="round"/><line x1="120" y1="35" x2="120" y2="77.0" stroke="#c0c8cf" stroke-width="4" stroke-linecap="round"/><rect x="109.08" y="72.0" width="21.84" height="9" rx="2" fill="#aab4bc" stroke="#65727d"/><rect x="107.0" y="77.0" width="26" height="66.0" rx="13.0" fill="#eee9dc" stroke="#7a7469" stroke-width="1.8"/><rect x="112.72" y="84.0" width="14.560000000000002" height="52.0" rx="7.280000000000001" fill="#faf8ef" stroke="#beb6a5"/><rect x="109.08" y="139.0" width="21.84" height="9" rx="2" fill="#aab4bc" stroke="#65727d"/><line x1="120" y1="143.0" x2="120" y2="185" stroke="#c0c8cf" stroke-width="4" stroke-linecap="round"/><circle cx="70" cy="35" r="10" fill="#edf1f5" stroke="#26313a" stroke-width="2"/><text x="70" y="59" text-anchor="middle" font-family="Arial,sans-serif" font-size="14" font-weight="700" fill="#111827">1</text><circle cx="120" cy="35" r="10" fill="#edf1f5" stroke="#26313a" stroke-width="2"/><text x="120" y="59" text-anchor="middle" font-family="Arial,sans-serif" font-size="14" font-weight="700" fill="#111827">3</text><circle cx="70" cy="185" r="10" fill="#edf1f5" stroke="#26313a" stroke-width="2"/><text x="70" y="169" text-anchor="middle" font-family="Arial,sans-serif" font-size="14" font-weight="700" fill="#111827">2</text><circle cx="120" cy="185" r="10" fill="#edf1f5" stroke="#26313a" stroke-width="2"/><text x="120" y="169" text-anchor="middle" font-family="Arial,sans-serif" font-size="14" font-weight="700" fill="#111827">4</text><rect x="83" y="99" width="24" height="22" rx="4" fill="#f8fafc" stroke="#64748b"/><text x="95.0" y="115.0" text-anchor="middle" font-family="Arial,sans-serif" font-size="15" font-weight="700">F</text></svg>